<svg xmlns="http://www.w3.org/2000/svg" viewBox="0 0 512 512">
  <!-- Background -->
  <rect width="512" height="512" rx="120" fill="#4f46e5"/>
  
  <!-- Document shape -->
  <path d="M140 100h232a20 20 0 0 1 20 20v320a20 20 0 0 1-20 20H140a20 20 0 0 1-20-20V120a20 20 0 0 1 20-20z" fill="white"/>
  
  <!-- Dog-ear fold -->
  <path d="M372 100v60h60z" fill="#e5e7eb"/>
  <path d="M372 100l60 60h-60z" fill="#d1d5db"/>
  
  <!-- Top lines -->
  <line x1="180" y1="160" x2="310" y2="160" stroke="#4f46e5" stroke-width="16" stroke-linecap="round"/>
  <line x1="180" y1="200" x2="330" y2="200" stroke="#4f46e5" stroke-width="16" stroke-linecap="round"/>
  
  <!-- Document lines -->
  <line x1="180" y1="260" x2="330" y2="260" stroke="#d1d5db" stroke-width="12" stroke-linecap="round"/>
  <line x1="180" y1="300" x2="330" y2="300" stroke="#d1d5db" stroke-width="12" stroke-linecap="round"/>
  <line x1="180" y1="340" x2="330" y2="340" stroke="#d1d5db" stroke-width="12" stroke-linecap="round"/>
  
  <!-- Total line -->
  <line x1="240" y1="380" x2="330" y2="380" stroke="#4f46e5" stroke-width="16" stroke-linecap="round"/>
</svg>